<?xml version="1.0" standalone="no"?>
<!DOCTYPE svg PUBLIC "-//W3C//DTD SVG 1.1//EN" "http://www.w3.org/Graphics/SVG/1.1/DTD/svg11.dtd">
<svg width="200px" height="200px" version="1.1" xmlns="http://www.w3.org/2000/svg" xmlns:xlink="http://www.w3.org/1999/xlink" xml:space="preserve" style="fill-rule:evenodd;clip-rule:evenodd;stroke-linejoin:round;stroke-miterlimit:1.41421;">
    <g>
        <g id="Layer1">
            <g>
                <path d="M42.0145,76.2473L51.9962,137.093L58.3675,137.093L70.2605,62.7614L65.9068,62.7614L55.1818,130.297L44.7754,63.08L39.5722,63.08L28.741,130.509L17.5913,62.7614L12.8128,62.7614L24.8121,137.093L31.6081,137.093L42.0145,76.2473Z" style="fill:black;fill-rule:nonzero;"/>
            </g>
            <g>
                <path d="M100.63,120.634L104.347,137.093L109.231,137.093L92.666,62.6552L85.5514,62.6552L69.3046,137.093L73.7645,137.093L77.4811,120.634L100.63,120.634ZM88.9494,68.2832L99.8868,116.386L78.2244,116.386L88.9494,68.2832Z" style="fill:black;fill-rule:nonzero;"/>
                <path d="M116.664,62.7614L116.664,137.093L121.549,137.093L121.549,103.856L129.301,103.856C137.796,103.856 143.211,106.617 143.211,116.493L143.211,128.173C143.211,132.208 143.53,134.863 144.804,137.093L149.901,137.093C148.309,134.651 148.096,131.253 148.096,128.173L148.096,116.599C148.096,108.528 145.017,103.113 137.371,101.414C144.698,99.7148 148.096,94.724 148.096,86.0166L148.096,79.5391C148.096,69.0265 143.53,62.7614 132.168,62.7614L116.664,62.7614ZM121.549,99.3963L121.549,67.2213L132.062,67.2213C140.132,67.2213 143.211,71.9998 143.211,79.9639L143.211,86.9723C143.211,96.9539 138.114,99.3963 129.407,99.3963L121.549,99.3963Z" style="fill:black;fill-rule:nonzero;"/>
                <path d="M157.653,62.7614L157.653,137.093L162.538,137.093L162.538,106.511L171.776,106.511C183.563,106.511 188.979,100.671 188.979,88.8836L188.979,80.8134C188.979,69.9822 184.519,62.7614 173.05,62.7614L157.653,62.7614ZM162.538,102.051L162.538,67.2213L173.05,67.2213C181.333,67.2213 184.094,72.4245 184.094,80.4948L184.094,89.2022C184.094,98.2282 180.377,102.051 171.776,102.051L162.538,102.051Z" style="fill:black;fill-rule:nonzero;"/>
            </g>
        </g>
    </g>
</svg>
