<?xml version="1.0" standalone="no"?>
<!DOCTYPE svg PUBLIC "-//W3C//DTD SVG 1.1//EN" "http://www.w3.org/Graphics/SVG/1.1/DTD/svg11.dtd">
<svg viewBox="0 0 208 128" version="1.1" xmlns="http://www.w3.org/2000/svg" xmlns:xlink="http://www.w3.org/1999/xlink" xml:space="preserve" style="fill-rule:evenodd;clip-rule:evenodd;stroke-linejoin:round;stroke-miterlimit:1.41421;">
    <g>
        <g id="Layer1">
            <g>
                <path d="M39.3582,75.1364L49.5954,137.54L56.1298,137.54L68.3273,61.3052L63.8622,61.3052L52.8626,130.57L42.1897,61.6319L36.8533,61.6319L25.7448,130.788L14.3096,61.3052L9.40884,61.3052L21.7153,137.54L28.6853,137.54L39.3582,75.1364Z" style="fill:black;fill-rule:nonzero;"/>
            </g>
            <g>
                <path d="M99.913,120.632L103.725,137.513L108.734,137.513L91.745,61.1693L84.4483,61.1693L67.7856,137.513L72.3596,137.513L76.1714,120.632L99.913,120.632ZM87.9333,66.9413L99.1507,116.276L76.9337,116.276L87.9333,66.9413Z" style="fill:black;fill-rule:nonzero;"/>
                <path d="M116.358,61.2782L116.358,137.513L121.368,137.513L121.368,103.425L129.318,103.425C138.03,103.425 143.585,106.257 143.585,116.385L143.585,128.365C143.585,132.503 143.911,135.226 145.218,137.513L150.446,137.513C148.812,135.008 148.594,131.523 148.594,128.365L148.594,116.494C148.594,108.217 145.436,102.663 137.595,100.92C145.109,99.1777 148.594,94.0591 148.594,85.1287L148.594,78.4854C148.594,67.7037 143.911,61.2782 132.258,61.2782L116.358,61.2782ZM121.368,98.851L121.368,65.8522L132.149,65.8522C140.426,65.8522 143.585,70.753 143.585,78.921L143.585,86.1089C143.585,96.3461 138.357,98.851 129.427,98.851L121.368,98.851Z" style="fill:black;fill-rule:nonzero;"/>
                <path d="M158.396,61.2782L158.396,137.513L163.406,137.513L163.406,106.148L172.88,106.148C184.969,106.148 190.523,100.158 190.523,88.0692L190.523,79.7923C190.523,68.6838 185.949,61.2782 174.187,61.2782L158.396,61.2782ZM163.406,101.574L163.406,65.8522L174.187,65.8522C182.682,65.8522 185.514,71.1887 185.514,79.4656L185.514,88.3959C185.514,97.653 181.702,101.574 172.88,101.574L163.406,101.574Z" style="fill:black;fill-rule:nonzero;"/>
            </g>
        </g>
    </g>
</svg>
