
<!-- Generator: Adobe Illustrator 17.1.0, SVG Export Plug-In . SVG Version: 6.00 Build 0)  -->
<!DOCTYPE svg PUBLIC "-//W3C//DTD SVG 1.1//EN" "http://www.w3.org/Graphics/SVG/1.1/DTD/svg11.dtd">
<svg version="1.1" id="svg-icons" xmlns="http://www.w3.org/2000/svg" xmlns:xlink="http://www.w3.org/1999/xlink" x="0px" y="0px" width="0px" height="0px" shape-rendering="auto"
	 viewBox="0 0 0 0" style="enable-background:new 0 0 0 0;" xml:space="preserve">
	<style type="text/css">
	.st0{fill:#CCCCCC;}
	</style>
	 <defs>
	 	<symbol id="icon-twitter">
			<circle class="bgcircle" cx="64" cy="64" r="61.8"/>
			<path class="st0" d="M25.6,80.4c0,0,18,3.1,26.8-5.1c0.2-0.8-0.3-0.7-2.8-0.9c-4.2-0.4-4.4-1.9-0.8-5.4c1.5-2-0.5-2.2-2-2
			c-1.5,0.2-7.6-2-7.6-6.2c2.6-0.3,5.3-1.2,2.3-3.1c-2.9-1.9-6-4.5-5.9-8.1c1.9,0.2,2.5-1.1,2.5-1.1s-5.6-5.6-4.3-10.2
			c26.5,12.5,27.6,13.5,27.6,13.5l2.8,0.5c0,0,2.5-13.3,18.4-13c3.4,0.2,10.5,0.5,16.7,15.6c3.3,1.1,3.3,1.1,3.3,1.1l2.9,0.8l-4.2,2.3
			l4.8,2.8L98.5,63c0,0-8.7,30.7-43.1,30.5C47.7,92.9,37.5,90.6,25.6,80.4z"/>
		</symbol>
		<symbol id="icon-fb">
			<circle class="bgcircle" cx="64" cy="64" r="61.8"/>
			<path class="st0" d="M84.1,34.8H70.8v17.6h13.1v16.2H70.8V110H55V69.2H40.6V53H55V31.4c0,0-0.4-8.8,8.5-9c20.7,0,20.6,0,20.6,0
			L84.1,34.8z"/>
		</symbol>
	</defs>
</svg>
