
<!-- Generator: Adobe Illustrator 17.1.0, SVG Export Plug-In . SVG Version: 6.00 Build 0)  -->
<!DOCTYPE svg PUBLIC "-//W3C//DTD SVG 1.1//EN" "http://www.w3.org/Graphics/SVG/1.1/DTD/svg11.dtd">
<svg version="1.1" id="svg-icons" xmlns="http://www.w3.org/2000/svg" xmlns:xlink="http://www.w3.org/1999/xlink" x="0px" y="0px" width="0px" height="0px" shape-rendering="auto"
	 viewBox="0 0 0 0" style="enable-background:new 0 0 0 0;" xml:space="preserve">

	 <defs>
	 	<symbol id="icon-twitter">
			<circle class="bgcircle" cx="64" cy="64" r="61.8"/>
			<path class="st0" d="M25.6,80.4c0,0,18,3.1,26.8-5.1c0.2-0.8-0.3-0.7-2.8-0.9c-4.2-0.4-4.4-1.9-0.8-5.4c1.5-2-0.5-2.2-2-2
			c-1.5,0.2-7.6-2-7.6-6.2c2.6-0.3,5.3-1.2,2.3-3.1c-2.9-1.9-6-4.5-5.9-8.1c1.9,0.2,2.5-1.1,2.5-1.1s-5.6-5.6-4.3-10.2
			c26.5,12.5,27.6,13.5,27.6,13.5l2.8,0.5c0,0,2.5-13.3,18.4-13c3.4,0.2,10.5,0.5,16.7,15.6c3.3,1.1,3.3,1.1,3.3,1.1l2.9,0.8l-4.2,2.3
			l4.8,2.8L98.5,63c0,0-8.7,30.7-43.1,30.5C47.7,92.9,37.5,90.6,25.6,80.4z"/>
		</symbol>
		<symbol id="icon-fb">
			<circle class="bgcircle" cx="64" cy="64" r="61.8"/>
			<path class="st0" d="M84.1,34.8H70.8v17.6h13.1v16.2H70.8V110H55V69.2H40.6V53H55V31.4c0,0-0.4-8.8,8.5-9c20.7,0,20.6,0,20.6,0
			L84.1,34.8z"/>
		</symbol>
		<symbol id="icon-menu">
			<path class="st0" d="M125.5,29c0,2.1-1.7,3.8-3.8,3.8H6.7c-2.1,0-3.8-1.7-3.8-3.8V7.2c0-2.1,1.7-3.8,3.8-3.8h115
				c2.1,0,3.8,1.7,3.8,3.8V29z"/>
			<path class="st0" d="M125.5,74.9c0,2.1-1.7,3.8-3.8,3.8H6.7c-2.1,0-3.8-1.7-3.8-3.8V53.1c0-2.1,1.7-3.8,3.8-3.8h115
				c2.1,0,3.8,1.7,3.8,3.8V74.9z"/>
			<path class="st0" d="M125.3,121.2c0,2.1-1.7,3.8-3.8,3.8H6.5c-2.1,0-3.8-1.7-3.8-3.8V99.3c0-2.1,1.7-3.8,3.8-3.8h115
				c2.1,0,3.8,1.7,3.8,3.8V121.2z"/>
		</symbol>
		<symbol id="icon-share">
			<circle class="bgcircle" cx="64" cy="64" r="61.8"/>
			<path class="st0" d="M84.1677,69.9037C79.907,69.9037 76.0014,71.5775 73.1103,74.2657L54.8505,65.1358C54.9012,64.5779 54.9519,63.9692 54.9519,63.4113C54.9519,62.8533 54.9012,62.2447 54.8505,61.6867L73.1103,52.5568C76.0014,55.2451 79.907,56.9189 84.1677,56.9189C93.1454,56.9189 100.399,49.6657 100.399,40.6879C100.399,31.7101 93.1454,24.4569 84.1677,24.4569C75.1899,24.4569 67.9367,31.7101 67.9367,40.6879C67.9367,41.2458 67.9874,41.8545 68.0381,42.4124L49.7783,51.5424C46.8871,48.8541 42.9815,47.1803 38.7209,47.1803C29.7432,47.1803 22.4899,54.4335 22.4899,63.4113C22.4899,72.389 29.7432,79.6422 38.7209,79.6422C42.9815,79.6422 46.8871,77.9684 49.7783,75.2802L68.0381,84.4101C67.9874,84.968 67.9367,85.5767 67.9367,86.1346C67.9367,95.1124 75.1899,102.366 84.1677,102.366C93.1454,102.366 100.399,95.1124 100.399,86.1346C100.399,77.1569 93.1454,69.9037 84.1677,69.9037Z" />
		</symbol>
	</defs>
</svg>
