<?xml version="1.0" standalone="no"?>
<!DOCTYPE svg PUBLIC "-//W3C//DTD SVG 1.1//EN" "http://www.w3.org/Graphics/SVG/1.1/DTD/svg11.dtd">
<svg width="100%" height="100%" viewBox="0 0 190 80" version="1.1" xmlns="http://www.w3.org/2000/svg" xmlns:xlink="http://www.w3.org/1999/xlink" xml:space="preserve" style="fill:black;fill-rule:evenodd;clip-rule:evenodd;stroke-linejoin:round;stroke-miterlimit:1.41421;">
    <g id="Layer1">
        <path class="logopath" d="M33.861,15.7686L44.0982,78.1722L50.6326,78.1722L62.8301,1.93738L58.365,1.93738L47.3654,71.2022L36.6925,2.26408L31.3561,2.26408L20.2476,71.4202L8.81236,1.93738L3.9116,1.93738L16.2181,78.1722L23.1881,78.1722L33.861,15.7686Z" style="fill-rule:nonzero;"/>
        <g>
            <path class="logopath" d="M94.4158,61.2642L98.2278,78.1452L103.237,78.1452L86.2478,1.80148L78.9511,1.80148L62.2884,78.1452L66.8624,78.1452L70.6742,61.2642L94.4158,61.2642ZM82.4361,7.57348L93.6535,56.9082L71.4365,56.9082L82.4361,7.57348Z" style="fill-rule:nonzero;"/>
            <path class="logopath" d="M110.861,1.91038L110.861,78.1452L115.871,78.1452L115.871,44.0572L123.821,44.0572C132.533,44.0572 138.088,46.8892 138.088,57.0172L138.088,68.9972C138.088,73.1352 138.414,75.8582 139.721,78.1452L144.949,78.1452C143.315,75.6402 143.097,72.1552 143.097,68.9972L143.097,57.1262C143.097,48.8492 139.939,43.2952 132.098,41.5522C139.612,39.8099 143.097,34.6913 143.097,25.7609L143.097,19.1176C143.097,8.33588 138.414,1.91038 126.761,1.91038L110.861,1.91038ZM115.871,39.4832L115.871,6.48438L126.652,6.48438C134.929,6.48438 138.088,11.3852 138.088,19.5532L138.088,26.7411C138.088,36.9783 132.86,39.4832 123.93,39.4832L115.871,39.4832Z" style="fill-rule:nonzero;"/>
            <path class="logopath" d="M152.899,1.91038L152.899,78.1452L157.909,78.1452L157.909,46.7802L167.383,46.7802C179.472,46.7802 185.026,40.7902 185.026,28.7014L185.026,20.4245C185.026,9.31598 180.452,1.91038 168.69,1.91038L152.899,1.91038ZM157.909,42.2062L157.909,6.48438L168.69,6.48438C177.185,6.48438 180.017,11.8209 180.017,20.0978L180.017,29.0281C180.017,38.2852 176.205,42.2062 167.383,42.2062L157.909,42.2062Z" style="fill-rule:nonzero;"/>
        </g>
    </g>
</svg>
